Rokkitt-700.ufo
<glyph name="exclam" format="1">
  <advance width="502"/>
  <unicode hex="0021"/>
  <outline>
    <contour>
      <point x="203" y="409" type="line"/>
      <point x="312" y="409" type="line"/>
      <point x="357" y="906" type="line"/>
      <point x="357" y="1222" type="line"/>
      <point x="154" y="1222" type="line"/>
      <point x="154" y="906" type="line"/>
    </contour>
    <contour>
      <point x="133" y="0" type="line"/>
      <point x="377" y="0" type="line"/>
      <point x="377" y="242" type="line"/>
      <point x="133" y="242" type="line"/>
    </contour>
  </outline>
</glyph>
<glyph name="one" format="1">
  <advance width="722"/>
  <unicode hex="0031"/>
  <outline>
    <contour>
      <point x="122" y="0" type="line"/>
      <point x="654" y="0" type="line"/>
      <point x="654" y="141" type="line"/>
      <point x="491" y="141" type="line"/>
      <point x="491" y="1152" type="line"/>
      <point x="110" y="1102" type="line"/>
      <point x="110" y="962" type="line"/>
      <point x="295" y="982" type="line"/>
      <point x="295" y="141" type="line"/>
      <point x="122" y="141" type="line"/>
    </contour>
  </outline>
</glyph>
<glyph name="colon" format="1">
  <advance width="560"/>
  <unicode hex="003A"/>
  <outline>
    <contour>
      <point x="154" y="80" type="line"/>
      <point x="408" y="80" type="line"/>
      <point x="408" y="323" type="line"/>
      <point x="154" y="323" type="line"/>
    </contour>
    <contour>
      <point x="154" y="621" type="line"/>
      <point x="408" y="621" type="line"/>
      <point x="408" y="866" type="line"/>
      <point x="154" y="866" type="line"/>
    </contour>
  </outline>
</glyph>
<glyph name="question" format="1">
  <advance width="851"/>
  <unicode hex="003F"/>
  <outline>
    <contour>
      <point x="317" y="340" type="curve"/>
      <point x="456" y="340" type="line"/>
      <point x="477" y="719"/>
      <point x="794" y="601"/>
      <point x="794" y="914" type="curve" smooth="yes"/>
      <point x="794" y="1108"/>
      <point x="635" y="1233"/>
      <point x="434" y="1233" type="curve" smooth="yes"/>
      <point x="244" y="1233"/>
      <point x="61" y="1144"/>
      <point x="61" y="889" type="curve"/>
      <point x="234" y="889" type="line"/>
      <point x="234" y="1022"/>
      <point x="301" y="1098"/>
      <point x="436" y="1098" type="curve" smooth="yes"/>
      <point x="535" y="1098"/>
      <point x="615" y="1025"/>
      <point x="615" y="914" type="curve" smooth="yes"/>
      <point x="615" y="693"/>
      <point x="317" y="800"/>
    </contour>
    <contour>
      <point x="294" y="0" type="line"/>
      <point x="489" y="0" type="line"/>
      <point x="489" y="209" type="line"/>
      <point x="294" y="209" type="line"/>
    </contour>
  </outline>
</glyph>
<glyph name="K" format="1">
  <advance width="1294"/>
  <unicode hex="004B"/>
  <outline>
    <contour>
      <point x="706" y="0" type="line"/>
      <point x="1250" y="0" type="line"/>
      <point x="1250" y="141" type="line"/>
      <point x="1099" y="141" type="line"/>
      <point x="649" y="579" type="line"/>
      <point x="1110" y="1012" type="line"/>
      <point x="1249" y="1012" type="line"/>
      <point x="1249" y="1152" type="line"/>
      <point x="732" y="1152" type="line"/>
      <point x="732" y="1012" type="line"/>
      <point x="852" y="1012" type="line"/>
      <point x="389" y="571" type="line"/>
      <point x="830" y="141" type="line"/>
      <point x="706" y="141" type="line"/>
    </contour>
    <component base="uc_main_stem" xOffset="-70"/>
    <contour>
      <point x="634" y="0" type="move" name="bot"/>
    </contour>
    <contour>
      <point x="645" y="1152" type="move" name="top"/>
    </contour>
  </outline>
</glyph>
<glyph name="P" format="1">
  <advance width="1120"/>
  <unicode hex="0050"/>
  <outline>
    <contour>
      <point x="501" y="467" type="line"/>
      <point x="584" y="467" type="line" smooth="yes"/>
      <point x="912" y="467"/>
      <point x="1083" y="586"/>
      <point x="1083" y="814" type="curve" smooth="yes"/>
      <point x="1083" y="1036"/>
      <point x="919" y="1152"/>
      <point x="604" y="1152" type="curve" smooth="yes"/>
      <point x="330" y="1152" type="line"/>
      <point x="330" y="1012" type="line"/>
      <point x="632" y="1012" type="line" smooth="yes"/>
      <point x="779" y="1012"/>
      <point x="856" y="944"/>
      <point x="856" y="814" type="curve" smooth="yes"/>
      <point x="856" y="678"/>
      <point x="760" y="607"/>
      <point x="575" y="607" type="curve" smooth="yes"/>
      <point x="501" y="607" type="line"/>
    </contour>
    <component base="uc_main_stem" xOffset="-70"/>
    <contour>
      <point x="559" y="1152" type="move" name="top"/>
    </contour>
  </outline>
</glyph>
<glyph name="underscore" format="1">
  <advance width="1290"/>
  <unicode hex="005F"/>
  <outline>
    <contour>
      <point x="175" y="-179" type="line"/>
      <point x="1116" y="-179" type="line"/>
      <point x="1116" y="-73" type="line"/>
      <point x="175" y="-73" type="line"/>
    </contour>
  </outline>
</glyph>
<glyph name="g" format="1">
  <advance width="1067"/>
  <unicode hex="0067"/>
  <outline>
    <contour>
      <point x="483" y="-390" type="curve" smooth="yes"/>
      <point x="720" y="-390"/>
      <point x="914" y="-289"/>
      <point x="914" y="-18" type="curve" smooth="yes"/>
      <point x="914" y="664" type="line"/>
      <point x="1049" y="664" type="line"/>
      <point x="1049" y="804" type="line"/>
      <point x="716" y="804" type="line"/>
      <point x="716" y="656" type="line"/>
      <point x="717" y="-27" type="line" smooth="yes"/>
      <point x="717" y="-178"/>
      <point x="619" y="-231"/>
      <point x="477" y="-231" type="curve" smooth="yes"/>
      <point x="393" y="-231"/>
      <point x="299" y="-212"/>
      <point x="212" y="-184" type="curve"/>
      <point x="172" y="-338" type="line"/>
      <point x="271" y="-371"/>
      <point x="380" y="-390"/>
    </contour>
    <component base="lc_bowl_left" xOffset="-93" yOffset="15" yScale="0.98"/>
    <contour>
      <point x="511" y="804" type="move" name="top"/>
    </contour>
  </outline>
</glyph>
<glyph name="i" format="1">
  <advance width="610"/>
  <unicode hex="0069"/>
  <outline>
    <component base="lc_xheight_stem" xOffset="-37"/>
    <component base="dotaccent" xOffset="160"/>
    <contour>
      <point x="317" y="0" type="move" name="ogonek"/>
    </contour>
    <contour>
      <point x="304" y="804" type="move" name="top"/>
    </contour>
  </outline>
</glyph>
<glyph name="q" format="1">
  <advance width="1102"/>
  <unicode hex="0071"/>
  <outline>
    <contour>
      <point x="561" y="-330" type="line"/>
      <point x="1072" y="-330" type="line"/>
      <point x="1072" y="-181" type="line"/>
      <point x="925" y="-181" type="line"/>
      <point x="925" y="664" type="line"/>
      <point x="1072" y="664" type="line"/>
      <point x="1072" y="804" type="line"/>
      <point x="729" y="804" type="line"/>
      <point x="727" y="701" type="line"/>
      <point x="727" y="-181" type="line"/>
      <point x="561" y="-181" type="line"/>
    </contour>
    <component base="lc_bowl_left" xOffset="-102"/>
  </outline>
</glyph>
<glyph name="w" format="1">
  <advance width="1417"/>
  <unicode hex="0077"/>
  <outline>
    <contour>
      <point x="348" y="0" type="line"/>
      <point x="533" y="0" type="line"/>
      <point x="711" y="502" type="line"/>
      <point x="891" y="0" type="line"/>
      <point x="1076" y="0" type="line"/>
      <point x="1309" y="664" type="line"/>
      <point x="1407" y="664" type="line"/>
      <point x="1407" y="804" type="line"/>
      <point x="1033" y="804" type="line"/>
      <point x="1033" y="664" type="line"/>
      <point x="1131" y="664" type="line"/>
      <point x="986" y="197" type="line"/>
      <point x="822" y="664" type="line"/>
      <point x="922" y="664" type="line"/>
      <point x="922" y="804" type="line"/>
      <point x="508" y="804" type="line"/>
      <point x="508" y="664" type="line"/>
      <point x="609" y="664" type="line"/>
      <point x="453" y="201" type="line"/>
      <point x="296" y="664" type="line"/>
      <point x="384" y="664" type="line"/>
      <point x="384" y="804" type="line"/>
      <point x="10" y="804" type="line"/>
      <point x="10" y="664" type="line"/>
      <point x="103" y="664" type="line"/>
    </contour>
    <contour>
      <point x="721" y="804" type="move" name="top"/>
    </contour>
  </outline>
</glyph>
<glyph name="z" format="1">
  <advance width="871"/>
  <unicode hex="007A"/>
  <outline>
    <contour>
      <point x="86" y="0" type="line"/>
      <point x="819" y="0" type="line"/>
      <point x="819" y="298" type="line"/>
      <point x="668" y="298" type="line"/>
      <point x="668" y="133" type="line"/>
      <point x="316" y="133" type="line"/>
      <point x="808" y="665" type="line"/>
      <point x="808" y="804" type="line"/>
      <point x="87" y="804" type="line"/>
      <point x="87" y="517" type="line"/>
      <point x="233" y="517" type="line"/>
      <point x="233" y="670" type="line"/>
      <point x="574" y="670" type="line"/>
      <point x="86" y="135" type="line"/>
    </contour>
    <contour>
      <point x="474" y="804" type="move" name="top"/>
    </contour>
  </outline>
</glyph>
<glyph name="yen" format="1">
  <advance width="1313"/>
  <unicode hex="00A5"/>
  <outline>
    <contour>
      <point x="305" y="297" type="line"/>
      <point x="1016" y="297" type="line"/>
      <point x="1016" y="414" type="line"/>
      <point x="742" y="414" type="line"/>
      <point x="742" y="503" type="line"/>
      <point x="1016" y="503" type="line"/>
      <point x="1016" y="622" type="line"/>
      <point x="305" y="622" type="line"/>
      <point x="305" y="503" type="line"/>
      <point x="582" y="503" type="line"/>
      <point x="582" y="414" type="line"/>
      <point x="305" y="414" type="line"/>
    </contour>
    <component base="Y"/>
  </outline>
</glyph>
<glyph name="cedilla" format="1">
  <advance width="456"/>
  <unicode hex="00B8"/>
  <outline>
    <contour>
      <point x="277" y="-387" type="curve" smooth="yes"/>
      <point x="369" y="-387"/>
      <point x="440" y="-351"/>
      <point x="440" y="-254" type="curve" smooth="yes"/>
      <point x="440" y="-192"/>
      <point x="391" y="-131"/>
      <point x="285" y="-118" type="curve"/>
      <point x="313" y="5" type="line"/>
      <point x="228" y="5" type="line"/>
      <point x="164" y="-166" type="line"/>
      <point x="240" y="-173"/>
      <point x="279" y="-197"/>
      <point x="279" y="-236" type="curve" smooth="yes"/>
      <point x="279" y="-277"/>
      <point x="248" y="-292"/>
      <point x="201" y="-292" type="curve" smooth="yes"/>
      <point x="163" y="-292"/>
      <point x="115" y="-282"/>
      <point x="67" y="-267" type="curve"/>
      <point x="67" y="-340" type="line"/>
      <point x="135" y="-369"/>
      <point x="211" y="-387"/>
    </contour>
    <contour>
      <point x="271" y="0" type="move" name="_bot"/>
    </contour>
  </outline>
</glyph>
<glyph name="multiply" format="1">
  <advance width="996"/>
  <unicode hex="00D7"/>
  <outline>
    <contour>
      <point x="215" y="134" type="line"/>
      <point x="496" y="409" type="line"/>
      <point x="773" y="139" type="line"/>
      <point x="867" y="233" type="line"/>
      <point x="591" y="503" type="line"/>
      <point x="872" y="779" type="line"/>
      <point x="782" y="871" type="line"/>
      <point x="499" y="595" type="line"/>
      <point x="223" y="866" type="line"/>
      <point x="129" y="772" type="line"/>
      <point x="405" y="500" type="line"/>
      <point x="124" y="225" type="line"/>
    </contour>
  </outline>
</glyph>
<glyph name="Oslash" format="1">
  <advance width="1450"/>
  <unicode hex="00D8"/>
  <outline>
    <contour>
      <point x="301" y="-77" type="line"/>
      <point x="1273" y="1152" type="line"/>
      <point x="1174" y="1222" type="line"/>
      <point x="202" y="-7" type="line"/>
    </contour>
    <component base="O"/>
  </outline>
</glyph>
<glyph name="ae" format="1">
  <advance width="1460"/>
  <unicode hex="00E6"/>
  <outline>
    <contour>
      <point x="358" y="-22" type="curve" smooth="yes"/>
      <point x="465" y="-22"/>
      <point x="568" y="3"/>
      <point x="711.537" y="93.891" type="curve"/>
      <point x="790.604" y="22.6516"/>
      <point x="901.368" y="-19"/>
      <point x="1032" y="-19" type="curve" smooth="yes"/>
      <point x="1198" y="-19"/>
      <point x="1335" y="50"/>
      <point x="1394" y="129" type="curve"/>
      <point x="1321" y="245" type="line"/>
      <point x="1221" y="161"/>
      <point x="1131" y="132"/>
      <point x="1040" y="132" type="curve" smooth="yes"/>
      <point x="893" y="132"/>
      <point x="797" y="228"/>
      <point x="788" y="363" type="curve"/>
      <point x="1405" y="363" type="line"/>
      <point x="1405" y="634"/>
      <point x="1263" y="826"/>
      <point x="1017" y="826" type="curve" smooth="yes"/>
      <point x="891.739" y="826"/>
      <point x="765" y="777"/>
      <point x="709" y="693" type="curve"/>
      <point x="665" y="777"/>
      <point x="540.077" y="826"/>
      <point x="418" y="826" type="curve" smooth="yes"/>
      <point x="300" y="826"/>
      <point x="156" y="790"/>
      <point x="68" y="723" type="curve"/>
      <point x="128" y="601" type="line"/>
      <point x="216" y="655"/>
      <point x="336" y="679"/>
      <point x="409" y="679" type="curve" smooth="yes"/>
      <point x="514" y="679"/>
      <point x="583" y="627"/>
      <point x="583" y="522" type="curve" smooth="yes"/>
      <point x="583" y="453" type="line"/>
      <point x="517" y="466"/>
      <point x="453" y="474"/>
      <point x="392" y="474" type="curve" smooth="yes"/>
      <point x="206" y="474"/>
      <point x="51" y="404"/>
      <point x="51" y="217" type="curve" smooth="yes"/>
      <point x="51" y="22"/>
      <point x="259" y="-22"/>
    </contour>
    <contour>
      <point x="388" y="104" type="curve" smooth="yes"/>
      <point x="325" y="104"/>
      <point x="237" y="121"/>
      <point x="237" y="224" type="curve" smooth="yes"/>
      <point x="237" y="331"/>
      <point x="315" y="358"/>
      <point x="403" y="358" type="curve" smooth="yes"/>
      <point x="457.071" y="358"/>
      <point x="532.505" y="348.424"/>
      <point x="584.412" y="343.18" type="curve"/>
      <point x="590.846" y="290.575"/>
      <point x="606.243" y="242"/>
      <point x="629.442" y="198.64" type="curve"/>
      <point x="574" y="153"/>
      <point x="500" y="104"/>
    </contour>
    <contour>
      <point x="791" y="481" type="line"/>
      <point x="809" y="598"/>
      <point x="891" y="681"/>
      <point x="1016" y="681" type="curve" smooth="yes"/>
      <point x="1134" y="681"/>
      <point x="1196" y="598"/>
      <point x="1207" y="481" type="curve"/>
    </contour>
    <contour>
      <point x="731" y="804" type="move" name="top"/>
    </contour>
  </outline>
</glyph>
<glyph name="Lslash" format="1">
  <advance width="1189"/>
  <unicode hex="0141"/>
  <outline>
    <contour>
      <point x="127" y="397" type="line"/>
      <point x="683" y="690" type="line"/>
      <point x="683" y="826" type="line"/>
      <point x="127" y="526" type="line"/>
    </contour>
    <component base="L"/>
  </outline>
</glyph>
<glyph name="lslash" format="1">
  <advance width="553"/>
  <unicode hex="0142"/>
  <outline>
    <contour>
      <point x="47" y="364" type="line"/>
      <point x="552" y="607" type="line"/>
      <point x="552" y="773" type="line"/>
      <point x="47" y="523" type="line"/>
    </contour>
    <component base="l"/>
  </outline>
</glyph>
<glyph name="oe" format="1">
  <advance width="1695"/>
  <unicode hex="0153"/>
  <outline>
    <contour>
      <point x="520" y="-22" type="curve" smooth="yes"/>
      <point x="663" y="-22"/>
      <point x="779" y="40"/>
      <point x="854" y="138" type="curve"/>
      <point x="932" y="39"/>
      <point x="1053" y="-22"/>
      <point x="1206" y="-22" type="curve" smooth="yes"/>
      <point x="1370" y="-22"/>
      <point x="1498" y="33"/>
      <point x="1569" y="126" type="curve"/>
      <point x="1466" y="225" type="line"/>
      <point x="1400" y="159"/>
      <point x="1304" y="122"/>
      <point x="1214" y="122" type="curve" smooth="yes"/>
      <point x="1046" y="122"/>
      <point x="960" y="223"/>
      <point x="951" y="360" type="curve"/>
      <point x="1583" y="360" type="line"/>
      <point x="1583" y="619"/>
      <point x="1465" y="826"/>
      <point x="1197" y="826" type="curve" smooth="yes"/>
      <point x="1056" y="826"/>
      <point x="936" y="764"/>
      <point x="857" y="658" type="curve"/>
      <point x="781" y="764"/>
      <point x="664" y="826"/>
      <point x="522" y="826" type="curve" smooth="yes"/>
      <point x="270" y="826"/>
      <point x="92" y="646"/>
      <point x="92" y="399" type="curve" smooth="yes"/>
      <point x="92" y="157"/>
      <point x="263" y="-22"/>
    </contour>
    <contour>
      <point x="521" y="126" type="curve" smooth="yes"/>
      <point x="376" y="126"/>
      <point x="287" y="238"/>
      <point x="287" y="399" type="curve" smooth="yes"/>
      <point x="287" y="560"/>
      <point x="374" y="673"/>
      <point x="520" y="673" type="curve" smooth="yes"/>
      <point x="666" y="673"/>
      <point x="755" y="560"/>
      <point x="755" y="399" type="curve" smooth="yes"/>
      <point x="755" y="238"/>
      <point x="665" y="126"/>
    </contour>
    <contour>
      <point x="954" y="473" type="line"/>
      <point x="975" y="599"/>
      <point x="1053" y="682"/>
      <point x="1196" y="682" type="curve" smooth="yes"/>
      <point x="1328" y="682"/>
      <point x="1385" y="594"/>
      <point x="1402" y="473" type="curve"/>
    </contour>
  </outline>
</glyph>
<glyph name="uni0307" format="1">
  <advance width="535"/>
  <unicode hex="0307"/>
  <outline>
    <contour>
      <point x="268" y="927" type="curve" smooth="yes"/>
      <point x="340" y="927"/>
      <point x="384" y="980"/>
      <point x="383" y="1038" type="curve"/>
      <point x="383" y="1108"/>
      <point x="330" y="1148"/>
      <point x="268" y="1148" type="curve" smooth="yes"/>
      <point x="206" y="1148"/>
      <point x="152" y="1101"/>
      <point x="153" y="1038" type="curve" smooth="yes"/>
      <point x="153" y="977"/>
      <point x="207" y="927"/>
    </contour>
    <contour>
      <point x="270" y="805" type="move" name="_top"/>
    </contour>
  </outline>
</glyph>
<glyph name="breveinvertedcomb" format="1">
  <advance width="584"/>
  <unicode hex="0311"/>
  <outline>
    <contour>
      <point x="1" y="960" type="curve"/>
      <point x="160" y="960" type="line"/>
      <point x="172" y="1030"/>
      <point x="214" y="1069"/>
      <point x="284" y="1069" type="curve" smooth="yes"/>
      <point x="350" y="1069"/>
      <point x="397" y="1030"/>
      <point x="406" y="960" type="curve"/>
      <point x="569" y="960" type="line"/>
      <point x="554" y="1114"/>
      <point x="443" y="1219"/>
      <point x="284" y="1219" type="curve" smooth="yes"/>
      <point x="128" y="1219"/>
      <point x="13" y="1115"/>
    </contour>
    <contour>
      <point x="287" y="849" type="move" name="_top"/>
    </contour>
  </outline>
</glyph>
<glyph name="endash" format="1">
  <advance width="1222"/>
  <unicode hex="2013"/>
  <outline>
    <contour>
      <point x="175" y="193" type="line"/>
      <point x="1048" y="193" type="line"/>
      <point x="1048" y="317" type="line"/>
      <point x="175" y="317" type="line"/>
    </contour>
  </outline>
</glyph>
<glyph name="estimated" format="1">
  <advance width="1119"/>
  <unicode hex="212E"/>
  <outline>
    <contour>
      <point x="976" y="117" type="curve"/>
      <point x="951" y="148" type="line"/>
      <point x="624" y="-70"/>
      <point x="367" y="56"/>
      <point x="341" y="401" type="curve"/>
      <point x="967" y="401" type="line"/>
      <point x="967" y="673"/>
      <point x="862" y="826"/>
      <point x="580" y="826" type="curve" smooth="yes"/>
      <point x="312" y="826"/>
      <point x="134" y="680"/>
      <point x="134" y="420" type="curve" smooth="yes"/>
      <point x="134" y="-45"/>
      <point x="674" y="-133"/>
    </contour>
    <contour>
      <point x="344" y="461" type="line"/>
      <point x="352" y="896"/>
      <point x="856" y="924"/>
      <point x="856" y="461" type="curve"/>
    </contour>
  </outline>
</glyph>
<glyph name="caron.alt" format="1">
  <advance width="600"/>
  <outline>
    <contour>
      <point x="85" y="741" type="line"/>
      <point x="244" y="741"/>
      <point x="330" y="816"/>
      <point x="329" y="955" type="curve"/>
      <point x="329" y="1174" type="line"/>
      <point x="85" y="1174" type="line"/>
      <point x="85" y="955" type="line"/>
      <point x="223" y="955" type="line"/>
      <point x="223" y="878"/>
      <point x="172" y="846"/>
      <point x="85" y="828" type="curve"/>
    </contour>
    <contour>
      <point x="147" y="804" type="move" name="_caron.alt"/>
    </contour>
  </outline>
</glyph>
<glyph name="lc_ascender_stem" format="1">
  <advance width="1220"/>
  <outline>
    <contour>
      <point x="116" y="0" type="line"/>
      <point x="588" y="0" type="line"/>
      <point x="588" y="140" type="line"/>
      <point x="465" y="140" type="line"/>
      <point x="465" y="1174" type="line"/>
      <point x="118" y="1174" type="line"/>
      <point x="118" y="1034" type="line"/>
      <point x="267" y="1034" type="line"/>
      <point x="267" y="140" type="line"/>
      <point x="116" y="140" type="line"/>
    </contour>
    <contour>
      <point x="357" y="935" type="move" name="mid"/>
    </contour>
  </outline>
</glyph>
<glyph name="lc_ascender_stem_1" format="1">
  <advance width="600"/>
  <outline>
    <contour>
      <point x="116" y="0" type="line"/>
      <point x="465" y="0" type="line"/>
      <point x="465" y="1174" type="line"/>
      <point x="118" y="1174" type="line"/>
      <point x="118" y="1034" type="line"/>
      <point x="267" y="1034" type="line"/>
      <point x="267" y="140" type="line"/>
      <point x="116" y="140" type="line"/>
    </contour>
  </outline>
</glyph>
